<?xml version="1.0" encoding="UTF-8" standalone="no"?>
<!-- Created with Inkscape (http://www.inkscape.org/) -->

<svg
   xmlns:dc="http://purl.org/dc/elements/1.1/"
   xmlns:cc="http://creativecommons.org/ns#"
   xmlns:rdf="http://www.w3.org/1999/02/22-rdf-syntax-ns#"
   xmlns:svg="http://www.w3.org/2000/svg"
   xmlns="http://www.w3.org/2000/svg"
   xmlns:sodipodi="http://sodipodi.sourceforge.net/DTD/sodipodi-0.dtd"
   xmlns:inkscape="http://www.inkscape.org/namespaces/inkscape"
   width="1366"
   height="768"
   viewBox="0 0 1366 768.00001"
   id="svg2"
   version="1.1"
   inkscape:version="0.92.2 (unknown)"
   sodipodi:docname="wp me.svg">
  <defs
     id="defs4" />
  <sodipodi:namedview
     id="base"
     pagecolor="#ffffff"
     bordercolor="#666666"
     borderopacity="1.0"
     inkscape:pageopacity="0.0"
     inkscape:pageshadow="2"
     inkscape:zoom="0.49497475"
     inkscape:cx="301.95984"
     inkscape:cy="285.52637"
     inkscape:document-units="px"
     inkscape:current-layer="layer1"
     showgrid="false"
     units="px"
     width="1366px"
     inkscape:window-width="1366"
     inkscape:window-height="714"
     inkscape:window-x="0"
     inkscape:window-y="28"
     inkscape:window-maximized="1" />
  <metadata
     id="metadata7">
    <rdf:RDF>
      <cc:Work
         rdf:about="">
        <dc:format>image/svg+xml</dc:format>
        <dc:type
           rdf:resource="http://purl.org/dc/dcmitype/StillImage" />
        <dc:title />
      </cc:Work>
    </rdf:RDF>
  </metadata>
  <g
     inkscape:label="Layer 1"
     inkscape:groupmode="layer"
     id="layer1"
     transform="translate(0,-284.36214)">
    <rect
       style="opacity:1;fill:#ffffff;fill-opacity:1;stroke:none;stroke-width:8.05300045;stroke-miterlimit:4;stroke-dasharray:none"
       id="rect4144"
       width="1366"
       height="768"
       x="0"
       y="284.36215"
       inkscape:export-xdpi="100"
       inkscape:export-ydpi="100" />
    <circle
       r="32.038357"
       cy="668.36212"
       cx="808.96179"
       id="circle4140"
       style="opacity:1;fill:#ffaaaa;fill-opacity:1;stroke:none;stroke-width:8.05300045;stroke-miterlimit:4;stroke-dasharray:none"
       inkscape:export-xdpi="100"
       inkscape:export-ydpi="100" />
    <circle
       style="opacity:1;fill:#ffe680;fill-opacity:1;stroke:none;stroke-width:8.05300045;stroke-miterlimit:4;stroke-dasharray:none"
       id="circle4142"
       cx="602.37354"
       cy="668.36212"
       r="32.038357"
       inkscape:export-xdpi="100"
       inkscape:export-ydpi="100" />
    <circle
       r="46.702755"
       cy="668.36212"
       cx="705.66766"
       id="circle4146"
       style="opacity:1;fill:#f9f9f9;fill-opacity:1;stroke:none;stroke-width:8.05300045;stroke-miterlimit:4;stroke-dasharray:none"
       inkscape:export-xdpi="100"
       inkscape:export-ydpi="100" />
    <path
       inkscape:connector-curvature="0"
       style="fill:#00aad4;fill-opacity:1;stroke:none"
       d="m 728.04254,682.3469 c -0.14781,1.33333 -0.47951,2.61528 -0.99547,3.84612 -0.72158,1.72195 -1.72356,3.22374 -3.00587,4.5049 -1.28248,1.28134 -2.78501,2.28192 -4.50779,3.00231 -1.72278,0.72019 -3.5453,1.07988 -5.468,1.07902 l -16.82367,-0.008 c -1.92269,0 -3.74511,-0.3622 -5.4672,-1.08397 -1.72194,-0.72193 -3.22358,-1.72387 -4.50489,-3.00637 -1.28116,-1.28232 -2.28193,-2.78502 -3.00197,-4.5076 -0.72038,-1.72276 -1.08007,-3.54533 -1.07916,-5.46802 l 0.008,-16.8235 c 0,-1.92269 0.36217,-3.74511 1.08414,-5.46721 0.72158,-1.72208 1.7237,-3.22373 3.00602,-4.50508 1.28247,-1.28096 2.78503,-2.28172 4.5076,-3.00196 1.72277,-0.72038 3.54548,-1.07989 5.46817,-1.07898 l 16.82371,0.008 c 0.96126,0 1.72243,-0.39991 2.28353,-1.20083 0.32066,-0.40021 0.48112,-0.92102 0.48143,-1.5618 0.003,-5.60801 -1.95808,-10.29527 -5.88176,-14.06248 l 3.1244,0 c 1.92268,0 3.74491,0.36236 5.46702,1.08404 1.7221,0.72171 3.22375,1.7239 4.5051,3.0063 1.28114,1.2824 2.2817,2.78483 3.00178,4.50761 0.72052,1.72277 1.0802,3.54547 1.07934,5.46816 l -0.003,5.5553 c -1.78636,-0.69226 -3.72845,-1.07337 -5.75903,-1.07428 -6.49816,-0.003 -12.09212,3.87821 -14.58767,9.44937 l -10.54037,-0.004 c -1.92269,0 -2.88421,0.95993 -2.88508,2.88262 l -0.008,16.8235 c 0,1.9227 0.95975,2.8844 2.88245,2.88526 l 16.82367,0.008 c 1.20119,0 2.01067,-0.40784 2.42922,-1.22468 0.0448,0.0176 -0.045,-0.0173 0,0 l 3.88665,-9.99242 c -1.91185,-0.78473 -3.25856,-2.66562 -3.25754,-4.86 0,-2.89858 2.35288,-5.24802 5.25144,-5.2467 2.8987,0 5.24815,2.35287 5.24684,5.25145 0,2.25345 -1.42292,4.17463 -3.41737,4.91773 l 3.83286,9.8979 z"
       id="path11653"
       sodipodi:nodetypes="ccsccccscccccscccsccsccccscccccccccsssccc"
       inkscape:export-xdpi="100"
       inkscape:export-ydpi="100" />
    <text
       xml:space="preserve"
       style="font-style:normal;font-variant:normal;font-weight:normal;font-stretch:normal;font-size:39.55042267px;line-height:125%;font-family:'April Flowers';-inkscape-font-specification:'April Flowers, Normal';text-align:start;letter-spacing:0px;word-spacing:0px;writing-mode:lr-tb;text-anchor:start;fill:#ffffff;fill-opacity:1;stroke:none;stroke-width:1px;stroke-linecap:butt;stroke-linejoin:miter;stroke-opacity:1;"
       x="1283.0227"
       y="1033.0066"
       id="text4209"
       inkscape:export-xdpi="100"
       inkscape:export-ydpi="100"><tspan
         sodipodi:role="line"
         id="tspan4211"
         x="1283.0227"
         y="1033.0066">Abas_</tspan></text>
  </g>
</svg>
